<svg id="Group_4124" data-name="Group 4124" xmlns="http://www.w3.org/2000/svg" width="129.613" height="128.991" viewBox="0 0 129.613 128.991">
  <path id="Subtraction_10" data-name="Subtraction 10" d="M4.708,0H32.681a4.708,4.708,0,0,1,4.708,4.708V32.681a4.708,4.708,0,0,1-4.708,4.708H4.708A4.708,4.708,0,0,1,0,32.681V4.708A4.708,4.708,0,0,1,4.708,0Z" transform="translate(46.112 0)" fill="#fff"/>
  <path id="Path_4703" data-name="Path 4703" d="M992.443,1372.747l5.354,6.231v-27.734H987.089v27.734Z" transform="translate(-935.717 -1351.245)" fill="#2396d4"/>
  <path id="Subtraction_11" data-name="Subtraction 11" d="M4.708,0H32.681a4.708,4.708,0,0,1,4.708,4.708V32.681a4.708,4.708,0,0,1-4.708,4.708H4.708A4.708,4.708,0,0,1,0,32.681V4.708A4.708,4.708,0,0,1,4.708,0Z" transform="translate(23.056 45.801)" fill="#fff"/>
  <path id="Subtraction_12" data-name="Subtraction 12" d="M4.708,0H32.681a4.708,4.708,0,0,1,4.708,4.708V32.681a4.708,4.708,0,0,1-4.708,4.708H4.708A4.708,4.708,0,0,1,0,32.681V4.708A4.708,4.708,0,0,1,4.708,0Z" transform="translate(69.169 45.801)" fill="#fff"/>
  <path id="Path_4704" data-name="Path 4704" d="M968.83,1419.655l5.354,6.231v-27.734H963.475v27.734Z" transform="translate(-935.16 -1352.352)" fill="#f577c3"/>
  <path id="Path_4705" data-name="Path 4705" d="M1016.057,1419.655l5.354,6.231v-27.734H1010.7v27.734Z" transform="translate(-936.275 -1352.352)" fill="#a3166b"/>
  <path id="Subtraction_13" data-name="Subtraction 13" d="M4.708,0H32.681a4.708,4.708,0,0,1,4.708,4.708V32.681a4.708,4.708,0,0,1-4.708,4.708H4.708A4.708,4.708,0,0,1,0,32.681V4.708A4.708,4.708,0,0,1,4.708,0Z" transform="translate(0 91.602)" fill="#fff"/>
  <path id="Subtraction_14" data-name="Subtraction 14" d="M4.708,0H32.681a4.708,4.708,0,0,1,4.708,4.708V32.681a4.708,4.708,0,0,1-4.708,4.708H4.708A4.708,4.708,0,0,1,0,32.681V4.708A4.708,4.708,0,0,1,4.708,0Z" transform="translate(46.112 91.602)" fill="#fff"/>
  <path id="Subtraction_15" data-name="Subtraction 15" d="M4.708,0H32.681a4.708,4.708,0,0,1,4.708,4.708V32.681a4.708,4.708,0,0,1-4.708,4.708H4.708A4.708,4.708,0,0,1,0,32.681V4.708A4.708,4.708,0,0,1,4.708,0Z" transform="translate(92.225 91.602)" fill="#fff"/>
  <path id="Path_4706" data-name="Path 4706" d="M945.216,1466.563l5.355,6.231v-27.734H939.862v27.734Z" transform="translate(-934.603 -1353.459)" fill="#e71e85"/>
  <path id="Path_4707" data-name="Path 4707" d="M992.443,1466.563l5.354,6.231v-27.734H987.089v27.734Z" transform="translate(-935.717 -1353.459)" fill="#702282"/>
  <path id="Path_4708" data-name="Path 4708" d="M1039.67,1466.563l5.354,6.231v-27.734h-10.707v27.734Z" transform="translate(-936.832 -1353.459)" fill="#86c3e0"/>
</svg>
