<svg id="Group_4067" data-name="Group 4067" xmlns="http://www.w3.org/2000/svg" width="150.816" height="150.091" viewBox="0 0 150.816 150.091">
  <path id="Subtraction_10" data-name="Subtraction 10" d="M4.708,0H38.8A4.708,4.708,0,0,1,43.5,4.708V38.8A4.708,4.708,0,0,1,38.8,43.5H4.708A4.708,4.708,0,0,1,0,38.8V4.708A4.708,4.708,0,0,1,4.708,0Z" transform="translate(53.656 0)" fill="#fff"/>
  <path id="Path_4703" data-name="Path 4703" d="M993.318,1376.265l6.23,7.251v-32.271h-12.46v32.271Z" transform="translate(-927.314 -1351.245)" fill="#2396d4"/>
  <path id="Subtraction_11" data-name="Subtraction 11" d="M4.708,0H38.8A4.708,4.708,0,0,1,43.5,4.708V38.8A4.708,4.708,0,0,1,38.8,43.5H4.708A4.708,4.708,0,0,1,0,38.8V4.708A4.708,4.708,0,0,1,4.708,0Z" transform="translate(26.828 53.293)" fill="#fff"/>
  <path id="Subtraction_12" data-name="Subtraction 12" d="M4.708,0H38.8A4.708,4.708,0,0,1,43.5,4.708V38.8A4.708,4.708,0,0,1,38.8,43.5H4.708A4.708,4.708,0,0,1,0,38.8V4.708A4.708,4.708,0,0,1,4.708,0Z" transform="translate(80.483 53.293)" fill="#fff"/>
  <path id="Path_4704" data-name="Path 4704" d="M969.706,1423.173l6.229,7.251v-32.271h-12.46v32.271Z" transform="translate(-930.529 -1344.86)" fill="#f577c3"/>
  <path id="Path_4705" data-name="Path 4705" d="M1016.932,1423.173l6.229,7.251v-32.271H1010.7v32.271Z" transform="translate(-924.1 -1344.86)" fill="#a3166b"/>
  <path id="Subtraction_13" data-name="Subtraction 13" d="M4.708,0H38.8A4.708,4.708,0,0,1,43.5,4.708V38.8A4.708,4.708,0,0,1,38.8,43.5H4.708A4.708,4.708,0,0,1,0,38.8V4.708A4.708,4.708,0,0,1,4.708,0Z" transform="translate(0 106.587)" fill="#fff"/>
  <path id="Subtraction_14" data-name="Subtraction 14" d="M4.708,0H38.8A4.708,4.708,0,0,1,43.5,4.708V38.8A4.708,4.708,0,0,1,38.8,43.5H4.708A4.708,4.708,0,0,1,0,38.8V4.708A4.708,4.708,0,0,1,4.708,0Z" transform="translate(53.656 106.587)" fill="#fff"/>
  <path id="Subtraction_15" data-name="Subtraction 15" d="M4.708,0H38.8A4.708,4.708,0,0,1,43.5,4.708V38.8A4.708,4.708,0,0,1,38.8,43.5H4.708A4.708,4.708,0,0,1,0,38.8V4.708A4.708,4.708,0,0,1,4.708,0Z" transform="translate(107.311 106.587)" fill="#fff"/>
  <path id="Path_4706" data-name="Path 4706" d="M946.091,1470.081l6.23,7.251v-32.27h-12.46v32.27Z" transform="translate(-933.743 -1338.474)" fill="#e71e85"/>
  <path id="Path_4707" data-name="Path 4707" d="M993.318,1470.081l6.23,7.251v-32.27h-12.46v32.27Z" transform="translate(-927.314 -1338.474)" fill="#702282"/>
  <path id="Path_4708" data-name="Path 4708" d="M1040.545,1470.081l6.229,7.251v-32.27h-12.459v32.27Z" transform="translate(-920.885 -1338.474)" fill="#86c3e0"/>
</svg>
