<svg xmlns="http://www.w3.org/2000/svg" width="94.266" height="99.898" viewBox="0 0 94.266 99.898">
  <g id="Group_4087" data-name="Group 4087" transform="translate(-645.257 -921.662)">
    <path id="Path_6138" data-name="Path 6138" d="M853.6,1006.448H798.643a4.3,4.3,0,0,0-4.3,4.3v95.6h23.006v-23.99a1.815,1.815,0,0,1,1.815-1.815h13.913a1.815,1.815,0,0,1,1.815,1.815v23.99H857.9v-95.6a4.3,4.3,0,0,0-4.3-4.3" transform="translate(-118.374 -84.786)" fill="#fff"/>
    <path id="Path_6139" data-name="Path 6139" d="M756.625,1038a4.3,4.3,0,0,0-4.3,4.3v72.536h30.711V1038Z" transform="translate(-107.067 -93.277)" fill="#85c3e0"/>
    <path id="Path_6140" data-name="Path 6140" d="M826.23,1020.635H815.1a1.815,1.815,0,0,0-1.815,1.815v11.131a1.815,1.815,0,0,0,1.815,1.815H826.23a1.815,1.815,0,0,0,1.815-1.815V1022.45a1.815,1.815,0,0,0-1.815-1.815" transform="translate(-123.472 -88.604)" fill="#85c3e0"/>
    <path id="Path_6141" data-name="Path 6141" d="M826.23,1048.23H815.1a1.815,1.815,0,0,0-1.815,1.815v11.131a1.814,1.814,0,0,0,1.815,1.815H826.23a1.815,1.815,0,0,0,1.815-1.815v-11.131a1.815,1.815,0,0,0-1.815-1.815" transform="translate(-123.472 -96.03)" fill="#85c3e0"/>
    <path id="Path_6142" data-name="Path 6142" d="M855.108,1020.635H843.978a1.815,1.815,0,0,0-1.815,1.815v11.131a1.815,1.815,0,0,0,1.815,1.815h11.131a1.815,1.815,0,0,0,1.815-1.815V1022.45a1.815,1.815,0,0,0-1.815-1.815" transform="translate(-131.243 -88.604)" fill="#85c3e0"/>
    <path id="Path_6143" data-name="Path 6143" d="M855.108,1048.23H843.978a1.815,1.815,0,0,0-1.815,1.815v11.131a1.814,1.814,0,0,0,1.815,1.815h11.131a1.815,1.815,0,0,0,1.815-1.815v-11.131a1.815,1.815,0,0,0-1.815-1.815" transform="translate(-131.243 -96.03)" fill="#85c3e0"/>
    <path id="Path_6144" data-name="Path 6144" d="M826.23,1075.824H815.1a1.815,1.815,0,0,0-1.815,1.815v11.131a1.814,1.814,0,0,0,1.815,1.815H826.23a1.815,1.815,0,0,0,1.815-1.815v-11.131a1.815,1.815,0,0,0-1.815-1.815" transform="translate(-123.472 -103.456)" fill="#85c3e0"/>
    <path id="Path_6145" data-name="Path 6145" d="M855.108,1075.824H843.978a1.815,1.815,0,0,0-1.815,1.815v11.131a1.814,1.814,0,0,0,1.815,1.815h11.131a1.815,1.815,0,0,0,1.815-1.815v-11.131a1.815,1.815,0,0,0-1.815-1.815" transform="translate(-131.243 -103.456)" fill="#85c3e0"/>
    <path id="Path_6146" data-name="Path 6146" d="M777.48,1048.23H766.35a1.815,1.815,0,0,0-1.815,1.815v11.131a1.814,1.814,0,0,0,1.815,1.815H777.48a1.814,1.814,0,0,0,1.815-1.815v-11.131a1.815,1.815,0,0,0-1.815-1.815" transform="translate(-110.353 -96.03)" fill="#1a97d9"/>
    <path id="Path_6147" data-name="Path 6147" d="M777.48,1075.824H766.35a1.815,1.815,0,0,0-1.815,1.815v11.131a1.814,1.814,0,0,0,1.815,1.815H777.48a1.814,1.814,0,0,0,1.815-1.815v-11.131a1.815,1.815,0,0,0-1.815-1.815" transform="translate(-110.353 -103.456)" fill="#1a97d9"/>
  </g>
</svg>
