<svg id="Group_4027" data-name="Group 4027" xmlns="http://www.w3.org/2000/svg" xmlns:xlink="http://www.w3.org/1999/xlink" width="143.865" height="143.859" viewBox="0 0 143.865 143.859">
  <defs>
    <clipPath id="clip-path">
      <rect id="Rectangle_8889" data-name="Rectangle 8889" width="143.865" height="143.859" fill="#fff"/>
    </clipPath>
  </defs>
  <g id="Group_1425" data-name="Group 1425" transform="translate(0 0)" clip-path="url(#clip-path)">
    <path id="Path_2390" data-name="Path 2390" d="M42.206,31.239c0-15.036-12.454-19.9-17.31-21.714L8.038,17.876V45.967c1.516.915,6.678,4.861,13.82,4.861,10.932,0,20.348-8.658,20.348-19.59" transform="translate(42.319 50.147)" fill="#fff"/>
    <path id="Path_2391" data-name="Path 2391" d="M103.658,109.327l-9.109-9.109,9.109-9.115,9.115,9.115ZM71.933,0A71.94,71.94,0,0,0,42.156,137.425V53.289h8.2v7.292l16.7-8.959c5.926,1.666,25.968,7.443,25.968,30.065A27.094,27.094,0,0,1,66.3,108.569a29.966,29.966,0,0,1-15.944-4.4v36.4A71.937,71.937,0,1,0,71.933,0" transform="translate(0 0)" fill="#fff"/>
  </g>
</svg>
