<svg id="Group_5047" data-name="Group 5047" xmlns="http://www.w3.org/2000/svg" xmlns:xlink="http://www.w3.org/1999/xlink" width="614.298" height="618.602" viewBox="0 0 614.298 618.602">
  <defs>
    <clipPath id="clip-path">
      <rect id="Rectangle_11466" data-name="Rectangle 11466" width="614.298" height="618.602" fill="none"/>
    </clipPath>
    <clipPath id="clip-path-3">
      <path id="Path_7102" data-name="Path 7102" d="M47.754,268.349c0,131.2,106.361,237.563,237.563,237.563S522.88,399.551,522.88,268.349,416.519,30.786,285.317,30.786,47.754,137.147,47.754,268.349" transform="translate(-47.754 -30.786)" fill="none"/>
    </clipPath>
    <clipPath id="clip-path-5">
      <rect id="Rectangle_11456" data-name="Rectangle 11456" width="475.219" height="474.916" fill="none"/>
    </clipPath>
    <clipPath id="clip-path-6">
      <rect id="Rectangle_11457" data-name="Rectangle 11457" width="283.853" height="317.459" fill="none"/>
    </clipPath>
    <clipPath id="clip-path-9">
      <rect id="Rectangle_11460" data-name="Rectangle 11460" width="34.888" height="7.884" fill="none"/>
    </clipPath>
    <clipPath id="clip-path-10">
      <rect id="Rectangle_11461" data-name="Rectangle 11461" width="29.66" height="6.702" fill="none"/>
    </clipPath>
    <clipPath id="clip-path-11">
      <rect id="Rectangle_11462" data-name="Rectangle 11462" width="23.011" height="5.2" fill="none"/>
    </clipPath>
    <clipPath id="clip-path-12">
      <rect id="Rectangle_11463" data-name="Rectangle 11463" width="23.854" height="5.389" fill="none"/>
    </clipPath>
    <clipPath id="clip-path-13">
      <rect id="Rectangle_11464" data-name="Rectangle 11464" width="34.18" height="9.672" fill="none"/>
    </clipPath>
  </defs>
  <g id="Group_5078" data-name="Group 5078" clip-path="url(#clip-path)">
    <g id="Group_5048" data-name="Group 5048">
      <g id="Group_5047-2" data-name="Group 5047" clip-path="url(#clip-path)">
        <path id="Path_7091" data-name="Path 7091" d="M114.151,103.224a27.551,27.551,0,0,0-10.142,1.93c.077-.932.123-1.872.123-2.824,0-18.273-14.3-33.085-31.929-33.085-14.869,0-27.362,10.531-30.916,24.788a31.718,31.718,0,0,0-9.009-1.307C14.451,92.725,0,107.447,0,125.608s14.451,32.884,32.278,32.884c.13,0,.257-.008.385-.01v.01h81.19v-.008c.1,0,.2.008.3.008a27.634,27.634,0,1,0,0-55.268" transform="translate(0 17.868)" fill="#fff"/>
        <path id="Path_7092" data-name="Path 7092" d="M522.881,268.349c0,131.2-106.361,237.563-237.563,237.563S47.755,399.551,47.755,268.349,154.115,30.786,285.318,30.786,522.881,137.147,522.881,268.349" transform="translate(12.323 7.944)" fill="#f577c3"/>
      </g>
    </g>
    <g id="Group_5050" data-name="Group 5050" transform="translate(60.076 38.73)">
      <g id="Group_5049" data-name="Group 5049" clip-path="url(#clip-path-3)">
        <path id="Path_7093" data-name="Path 7093" d="M246.434,125.149c4.628-11-15.694-29.272-10.609-8.643-1.551,8.751,6.4,18.655,10.609,8.643" transform="translate(0.563 -11.085)" fill="#e71e85"/>
        <path id="Path_7094" data-name="Path 7094" d="M422.807,271.643c85.963-58.557-23.505-52.088-6.206-72.366C544.83,239.4,382.889,53.837,305.816,40.057c2-23.938-52.906-42.9-53.048-25.464-.127,15.724-45.376,30.481-28.189,42.02,3.445,1.234,61.707-12.475,80.438,4.115,71.293,61.82-116.7-12.368-29.4,75.978,21.023,11.423,16.214-53.722,42.094-11.01,31.089,29.175-43.041,11.48-39.216,25.828,3.7,13.86-30.92,5.8-27.424,16.16,10.685,31.667-31.988,18.4-8.913,42.417,29.642,30.858,26.293-19.837,58.816-2.141,21.821,2.194-3.606-37.956,34.6-9.517,13.7,3.778,11.473-56.12,24.518-47.794,35.1,22.4,40.977-53.156,48.632,14.439,1.768,15.611-8.275,10.829-22.145,5.568C372.677,165.379,344.5,196,364.219,196.805c13.328.542,32.543.671,22.364,11.632-13.919,18.029,16.158,15.751,3.823,35.868-2.809,13.443,15.322,24.776,3.536,27.042-21.745,6.128-43.27-24.183-51.129-39.572-20.815-5.457-28.137,17.074-44.29,16.572C268.517,235.719,280.74,260.862,269.8,272c-13.876,9.653-28.313,27.927-16.014,43.526-17.922,22.908,8.888,45.546,30.8,51.861,21.423,9.081,28.073-35.654,33.944-2.716,33.556.176,76.277,25.519,55.017,67.2-12.106,22.226,43.74,64.38,51.058,36.385,7.828-29.951-4.1-40.457,32.641-46.434,32.266-5.25,10.043-49.261,21.043-86.088,9.933-73.449-50.517-41.139-55.478-64.087" transform="translate(-3.131 -36.715)" fill="#e71e85"/>
        <path id="Path_7095" data-name="Path 7095" d="M297.418,172.486c-8.643-4.576-12.753.657-12.056,6.783,4.388,6.811,17.283,1.506,12.056-6.783" transform="translate(13.539 5.33)" fill="#e71e85"/>
        <path id="Path_7096" data-name="Path 7096" d="M193.033,207.269c-6.4-3.517-9.442.5-8.926,5.215,3.248,5.236,12.794,1.157,8.926-5.215" transform="translate(-12.584 14.409)" fill="#e71e85"/>
        <path id="Path_7097" data-name="Path 7097" d="M276.211,54.149c-.457.918-1.5,2.858.75,3.736,8.328,2.643,3.721-8.645-.75-3.736" transform="translate(11.031 -25.081)" fill="#e71e85"/>
        <path id="Path_7098" data-name="Path 7098" d="M170.847,401.554c27.1-23.322,61.722,35.024,83.764,6.023,13.85-46.534-30.526-21.6-53.155-32.522-7.789-5.008-2.858-16.482,2.739-29.022,29.78-59.532-6.159-26.891-.1-77.586-17.683-16.443-8.542,24.4-19.149,22.943-15.724-12.949-9.915,20.584-22.411,10.061C151.675,292.3,165.663,247.7,134.951,262c-15.494,4.319-53.035-11.48-25.512-28.746.279-15.066-59.574-21.364-.213-26.579,19.716-2.438,1.14-20.7,14.831-21.76,21.275-1.651,17.65-16.995,24.279-24.415,12.95-14.491,23.523,2.153,28.31-10.443,8.98-20.676,18.084,1.193,29.382-4.129,9.848-5.174-2.119-21.292-9.974-30.463-1.931-7.3,12.057-16.972-1.813-17.731-1.487-6.151,14.791-16.836-2.1-17.581-17.118,2.988-12.909,52.444-34.893,34.378-2.1-8.268,20.054-14.563,6.795-21.96,160.2-127.331-115.453-.949-111.388,93.694-15.392,59.7,57.039,77.148,58.233,117.724-24.427,35.867-5.1,139.81,59.963,97.565" transform="translate(-47.044 -28.727)" fill="#e71e85"/>
        <path id="Path_7099" data-name="Path 7099" d="M141.359,379.405a1.5,1.5,0,0,0-1.273-.829,12.483,12.483,0,0,1,1.273.829" transform="translate(-23.929 58.957)" fill="#e71e85"/>
        <path id="Path_7100" data-name="Path 7100" d="M351.184,467.06c-38.766-44.113-34.19,1.258-45.517-37.5-15.339-2.681-45.083-10.673-19.128-14.881,45.55-7.387,34.594-30,9.941-33.2-9.488-1.232-13.882,25.646-38.075,13.284-20.716-2.38-6.539,17.579-42.487,8.706-11.823,2.851,1.968-28.257-21.578-21.179-41.061-8.87-26.712,24.343-59.24-.9-12.037-10.2,10.781,44.1-7.224,20.431,2.378,9.084-15.831-6.546-20.12-1.642-12.718,10.586,12.6,8.56,5.788,25.158-7.9,3.08-18.063,9.877-10.908,19.3,37.383,15.586-11.066,35.858,8.865,46.985,53.716-11.223,83.16,27.1,129.533,3,38.467-6.786,53.635,44.621,89.648,18.405,4.847-4.3-4.4-14.962,2.745-18.016,15.073,3.794,6.281-4.145,8.657-14.5,9.048,9.405,18.01-5.988,9.1-13.442" transform="translate(-34.219 59.348)" fill="#e71e85"/>
        <path id="Path_7101" data-name="Path 7101" d="M197.016,345.441c-14.42,10.735-2.282,26.486,13.958,19.4,6.2-6.5-5.655-23.857-13.958-19.4" transform="translate(-10.896 50.221)" fill="#e71e85"/>
      </g>
    </g>
    <g id="Group_5058" data-name="Group 5058">
      <g id="Group_5057" data-name="Group 5057" clip-path="url(#clip-path)">
        <g id="Group_5053" data-name="Group 5053" transform="translate(60.03 38.94)" opacity="0.2" style="mix-blend-mode: multiply;isolation: isolate">
          <g id="Group_5052" data-name="Group 5052">
            <g id="Group_5051" data-name="Group 5051" clip-path="url(#clip-path-5)">
              <path id="Path_7103" data-name="Path 7103" d="M65.775,177.526A237.326,237.326,0,0,0,54.191,323.31c-7.685-36.8-7.22-77.3,3.052-118.081a277.491,277.491,0,0,1,8.532-27.7M297.312,30.953c99.579,26.431,155.475,145.078,124.965,266.214-30.709,121.927-137.319,200.187-238.119,174.8a159.755,159.755,0,0,1-64.77-33.619c69.444,67.733,176.442,88.477,268.926,43.982,118.231-56.883,167.963-198.841,111.081-317.071a237.508,237.508,0,0,0-202.083-134.3" transform="translate(-47.718 -30.953)" fill="#262959"/>
            </g>
          </g>
        </g>
        <g id="Group_5056" data-name="Group 5056" transform="translate(60.08 38.73)" opacity="0.3" style="mix-blend-mode: screen;isolation: isolate">
          <g id="Group_5055" data-name="Group 5055">
            <g id="Group_5054" data-name="Group 5054" clip-path="url(#clip-path-6)">
              <path id="Path_7104" data-name="Path 7104" d="M102.841,143.63C157.849,65.451,246.984,26.709,331.608,35.372c-4.45-.881-8.946-1.652-13.5-2.286C188.164,14.989,68.151,105.663,50.054,235.611A236.515,236.515,0,0,0,61.577,348.245c-15.731-66.838-2.936-141.8,41.265-204.615" transform="translate(-47.757 -30.786)" fill="#fff"/>
            </g>
          </g>
        </g>
        <path id="Path_7105" data-name="Path 7105" d="M489.424,184.947a21.409,21.409,0,0,0-7.9,1.52c.06-.732.108-1.468.108-2.217,0-14.218-11.124-25.745-24.845-25.745-11.574,0-21.27,8.211-24.032,19.308a24.678,24.678,0,0,0-7.036-1.037,25.593,25.593,0,0,0,0,51.177c.1,0,.2-.014.3-.015v.015h63.179v-.011c.078,0,.153.011.231.011a21.5,21.5,0,0,0,0-43.007" transform="translate(103.37 40.901)" fill="#fff"/>
        <path id="Path_7106" data-name="Path 7106" d="M166,369.168a14.679,14.679,0,0,0-5.539,1.092c.043-.526.075-1.055.075-1.593,0-10.224-7.8-18.512-17.413-18.512-8.109,0-14.905,5.9-16.841,13.884a16.887,16.887,0,0,0-4.932-.745c-9.721,0-17.6,8.238-17.6,18.4s7.88,18.4,17.6,18.4c.072,0,.14-.01.21-.011v.011h44.277v-.009c.054,0,.107.009.162.009a15.467,15.467,0,0,0,0-30.924" transform="translate(26.771 90.354)" fill="#fff"/>
      </g>
    </g>
    <g id="Group_5060" data-name="Group 5060">
      <g id="Group_5059" data-name="Group 5059" clip-path="url(#clip-path)">
        <path id="Path_7107" data-name="Path 7107" d="M488.222,121.823l-.034-.057c-33.666,19.492-86.869,39.891-144.859,55.852C304.422,188.326,146.761,231.491,49.1,273.206l.006.054c97.654-41.732,255.434-84.93,294.359-95.642,57.933-15.946,111.087-36.32,144.76-55.8" transform="translate(12.669 31.42)" fill="#f577c3"/>
      </g>
    </g>
    <g id="Group_5077" data-name="Group 5077">
      <g id="Group_5076" data-name="Group 5076" clip-path="url(#clip-path)">
        <path id="Path_7108" data-name="Path 7108" d="M332.557,50.619a3.633,3.633,0,0,1-.742-.077,3.456,3.456,0,0,1-.7-.213,3.258,3.258,0,0,1-.655-.352,3.352,3.352,0,0,1-.579-.465,4.049,4.049,0,0,1-.466-.566,3.651,3.651,0,0,1-.34-.655,2.763,2.763,0,0,1-.213-.7,3.631,3.631,0,0,1-.077-.742,3.583,3.583,0,0,1,.077-.73,2.729,2.729,0,0,1,.213-.717,3.2,3.2,0,0,1,.34-.642,3.446,3.446,0,0,1,1.044-1.044,4.049,4.049,0,0,1,.655-.354,4.627,4.627,0,0,1,.7-.213,3.582,3.582,0,0,1,1.472,0,4.706,4.706,0,0,1,.706.213,4.133,4.133,0,0,1,.653.354,3.444,3.444,0,0,1,1.044,1.044,3.963,3.963,0,0,1,.353.642,4.425,4.425,0,0,1,.213.717,4.751,4.751,0,0,1,.063.73,4.806,4.806,0,0,1-.063.742,3.688,3.688,0,0,1-.566,1.359,4.053,4.053,0,0,1-.465.566,3.476,3.476,0,0,1-.579.465,4.232,4.232,0,0,1-.653.352,3.506,3.506,0,0,1-.706.213,3.586,3.586,0,0,1-.73.077" transform="translate(84.839 11.114)" fill="#fff"/>
        <path id="Path_7109" data-name="Path 7109" d="M33.207,311.366a3.781,3.781,0,1,1,1.774.44,3.738,3.738,0,0,1-1.774-.44m-10.756-9.309a3.775,3.775,0,1,1,5.246,1.032,3.843,3.843,0,0,1-2.115.629,3.77,3.77,0,0,1-3.131-1.661m-4.177-13.864h0a3.775,3.775,0,1,1,3.848,3.7h-.074a3.771,3.771,0,0,1-3.774-3.7m4.628-8.781a3.728,3.728,0,1,1,1.107.176,3.762,3.762,0,0,1-1.107-.176M27.068,267.6a3.734,3.734,0,1,1,1.659.4,3.568,3.568,0,0,1-1.659-.4m5.8-11.108a3.773,3.773,0,1,1,1.988.566,3.705,3.705,0,0,1-1.988-.566m6.744-10.568a3.768,3.768,0,1,1,2.176.692,3.769,3.769,0,0,1-2.176-.692m7.322-10.178a3.767,3.767,0,0,1-.693-5.284h.014a3.776,3.776,0,1,1,.679,5.284m7.724-9.876a3.77,3.77,0,1,1,2.39.854,3.713,3.713,0,0,1-2.39-.854m8-9.649a3.786,3.786,0,1,1,2.452.906,3.769,3.769,0,0,1-2.452-.906m8.214-9.473a3.773,3.773,0,1,1,2.516.956,3.769,3.769,0,0,1-2.516-.956m8.379-9.335a3.776,3.776,0,1,1,5.335-.226,3.829,3.829,0,0,1-2.793,1.22,3.73,3.73,0,0,1-2.543-.994m8.492-9.221a3.759,3.759,0,1,1,2.593,1.032,3.764,3.764,0,0,1-2.593-1.032m8.6-9.121a3.77,3.77,0,1,1,2.605,1.044,3.776,3.776,0,0,1-2.605-1.044m8.669-9.058a3.782,3.782,0,1,1,2.629,1.057,3.772,3.772,0,0,1-2.629-1.057m8.73-9.008a3.774,3.774,0,0,1-.074-5.334h.013a3.767,3.767,0,1,1,.062,5.334m8.77-8.97a3.772,3.772,0,1,1,5.333-.038v-.013a3.765,3.765,0,0,1-5.333.05m8.781-8.945a3.782,3.782,0,1,1,2.654,1.082,3.775,3.775,0,0,1-2.654-1.082m8.806-8.932a3.782,3.782,0,1,1,2.654,1.082,3.722,3.722,0,0,1-2.654-1.082m8.831-8.894a3.777,3.777,0,1,1,5.333.075,3.766,3.766,0,0,1-5.333-.075m9.02-8.693a3.774,3.774,0,1,1,2.766,1.208,3.776,3.776,0,0,1-2.766-1.208m9.234-8.492a3.77,3.77,0,1,1,5.32.327,3.774,3.774,0,0,1-5.32-.327m9.423-8.253a3.771,3.771,0,1,1,5.309.44h.013a3.78,3.78,0,0,1-5.322-.44m9.611-8.039a3.78,3.78,0,1,1,2.944,1.409,3.777,3.777,0,0,1-2.944-1.409m9.8-7.8a3.806,3.806,0,1,1,3.005,1.472,3.784,3.784,0,0,1-3.005-1.472m10-7.56a3.774,3.774,0,1,1,5.27.83,3.727,3.727,0,0,1-2.213.73,3.768,3.768,0,0,1-3.057-1.56m10.19-7.309a3.766,3.766,0,1,1,3.106,1.635,3.761,3.761,0,0,1-3.106-1.635m10.366-7.045a3.774,3.774,0,1,1,5.22,1.106,3.786,3.786,0,0,1-5.22-1.106M237.123,55.3a3.775,3.775,0,1,1,5.183,1.245,3.691,3.691,0,0,1-1.964.554,3.763,3.763,0,0,1-3.219-1.8m180.339-4.692a3.758,3.758,0,1,1,1.687.4,3.7,3.7,0,0,1-1.687-.4m-169.621-1.8a3.775,3.775,0,1,1,3.285,1.9,3.789,3.789,0,0,1-3.285-1.9m10.908-6.19a3.759,3.759,0,1,1,3.333,2,3.8,3.8,0,0,1-3.333-2m163.9-3.434a3.737,3.737,0,1,1,.769.087,4.112,4.112,0,0,1-.769-.087M269.819,36.76a3.773,3.773,0,0,1,1.7-5.069V31.7a3.77,3.77,0,1,1,3.372,6.743,3.687,3.687,0,0,1-1.686.4,3.79,3.79,0,0,1-3.383-2.09m11.246-5.534a3.775,3.775,0,1,1,5.008,1.849,3.674,3.674,0,0,1-1.573.352,3.8,3.8,0,0,1-3.436-2.2m11.423-5.171a3.8,3.8,0,1,1,3.486,2.3,3.774,3.774,0,0,1-3.486-2.3m127.125-1.926a3.767,3.767,0,1,1,3.637,2.744,3.788,3.788,0,0,1-3.637-2.744M304.074,21.274a3.769,3.769,0,0,1,2.19-4.869v-.013a3.78,3.78,0,0,1,2.678,7.07,3.837,3.837,0,0,1-1.346.239,3.771,3.771,0,0,1-3.522-2.428m11.75-4.365a3.776,3.776,0,1,1,4.782,2.378,3.691,3.691,0,0,1-1.208.2,3.786,3.786,0,0,1-3.574-2.579M414,15.738a3.757,3.757,0,1,1,2.415.882A3.773,3.773,0,0,1,414,15.738m-86.262-2.716a3.776,3.776,0,1,1,4.667,2.579,3.684,3.684,0,0,1-1.044.151,3.785,3.785,0,0,1-3.623-2.73m12.077-3.36a3.774,3.774,0,1,1,4.542,2.807,3.476,3.476,0,0,1-.869.1,3.772,3.772,0,0,1-3.672-2.907m64.412.907h0a3.742,3.742,0,1,1,1.2.2,3.586,3.586,0,0,1-1.2-.2M352.043,6.92a3.812,3.812,0,1,1,3.724,3.12,3.78,3.78,0,0,1-3.724-3.12m12.38-2.013a3.769,3.769,0,1,1,4.138,3.372c-.137.013-.264.013-.389.013a3.763,3.763,0,0,1-3.749-3.384m28.318,3.221a3.78,3.78,0,1,1,.452.025,2.728,2.728,0,0,1-.452-.025M376.9,3.813a3.774,3.774,0,1,1,3.824,3.736h-.05A3.777,3.777,0,0,1,376.9,3.813" transform="translate(4.715 0)" fill="#fff"/>
        <path id="Path_7110" data-name="Path 7110" d="M41.677,252.819a3.6,3.6,0,0,1-.73-.077,4.312,4.312,0,0,1-.717-.213,3.676,3.676,0,0,1-.654-.354,3.951,3.951,0,0,1-.566-.464,3.792,3.792,0,0,1-1.107-2.667,3.586,3.586,0,0,1,.077-.73,4.56,4.56,0,0,1,.213-.717,4.059,4.059,0,0,1,.352-.642,2.936,2.936,0,0,1,.465-.579,3.207,3.207,0,0,1,.566-.465,3.676,3.676,0,0,1,.654-.354,3.376,3.376,0,0,1,.717-.213,3.762,3.762,0,0,1,3.4,1.032,2.936,2.936,0,0,1,.465.579,4.066,4.066,0,0,1,.354.642,3.694,3.694,0,0,1,.213.717,3.584,3.584,0,0,1,.075.73,3.78,3.78,0,0,1-3.774,3.774" transform="translate(9.78 63.29)" fill="#fff"/>
        <path id="Path_7111" data-name="Path 7111" d="M102.57,366.308a3.78,3.78,0,0,1-3.787-3.774,3.642,3.642,0,0,1,.077-.742,4.4,4.4,0,0,1,.214-.7,4.773,4.773,0,0,1,.351-.655,5.05,5.05,0,0,1,.465-.565,3.8,3.8,0,0,1,3.409-1.032,2.849,2.849,0,0,1,.706.213,4.172,4.172,0,0,1,.653.34,3.489,3.489,0,0,1,.579.479,3.8,3.8,0,0,1,.465.565,4.656,4.656,0,0,1,.354.655,4.533,4.533,0,0,1,.213.7,3.641,3.641,0,0,1,.075.742,3.785,3.785,0,0,1-1.107,2.667,3.352,3.352,0,0,1-.579.465,4.133,4.133,0,0,1-.653.354,4.561,4.561,0,0,1-.706.213,3.586,3.586,0,0,1-.73.075" transform="translate(25.49 92.575)" fill="#fff"/>
        <path id="Path_7112" data-name="Path 7112" d="M105,437.67h.013a3.822,3.822,0,1,1,.465.024,3.294,3.294,0,0,1-.478-.024m-12.6-1.837h0a3.777,3.777,0,0,1,1.258-7.448v.011a3.769,3.769,0,0,1-.629,7.487,3.662,3.662,0,0,1-.629-.05m-12.553-2.478a3.755,3.755,0,1,1,.855.1,4.044,4.044,0,0,1-.855-.1m-12.442-3.46h0a3.794,3.794,0,1,1,1.194.187,3.573,3.573,0,0,1-1.194-.187m-12.166-5.1v-.013a3.768,3.768,0,1,1,3.56-6.641v-.014a3.779,3.779,0,0,1-3.56,6.668m-11.032-8.454a3.775,3.775,0,1,1,5.322.428,3.721,3.721,0,0,1-2.441.893,3.8,3.8,0,0,1-2.881-1.321M42.747,406.18a3.821,3.821,0,1,1,.089,0ZM44.66,393.99a3.776,3.776,0,1,1,1.861.491,3.847,3.847,0,0,1-1.861-.491m6.781-10.542a3.785,3.785,0,1,1,2.516.956,3.78,3.78,0,0,1-2.516-.956M60.1,374.3a3.778,3.778,0,1,1,5.322.3,3.744,3.744,0,0,1-2.5.955A3.782,3.782,0,0,1,60.1,374.3m9.535-8.239a3.766,3.766,0,1,1,2.994,1.472,3.784,3.784,0,0,1-2.994-1.472m10.053-7.6a3.758,3.758,0,1,1,3.081,1.61,3.783,3.783,0,0,1-3.081-1.61m10.366-7.146a3.77,3.77,0,1,1,3.183,1.724,3.778,3.778,0,0,1-3.183-1.724m10.618-6.793a3.764,3.764,0,1,1,3.221,1.812,3.766,3.766,0,0,1-3.221-1.812m10.781-6.5a3.777,3.777,0,1,1,5.158,1.359,3.685,3.685,0,0,1-1.887.516,3.807,3.807,0,0,1-3.271-1.875m10.931-6.29a3.771,3.771,0,1,1,5.12,1.472,3.7,3.7,0,0,1-1.823.477,3.756,3.756,0,0,1-3.3-1.949m11.02-6.076a3.775,3.775,0,1,1,5.121,1.547,3.842,3.842,0,0,1-1.786.44,3.779,3.779,0,0,1-3.335-1.988m11.121-5.914a3.791,3.791,0,0,1,1.624-5.094v.011a3.769,3.769,0,1,1-1.624,5.082m11.21-5.762a3.769,3.769,0,1,1,5.057,1.673,3.86,3.86,0,0,1-1.686.4,3.773,3.773,0,0,1-3.372-2.077m11.258-5.647a3.768,3.768,0,1,1,5.046,1.736,3.684,3.684,0,0,1-1.648.389,3.779,3.779,0,0,1-3.4-2.125m11.322-5.511a3.788,3.788,0,1,1,3.4,2.139,3.759,3.759,0,0,1-3.4-2.139m11.336-5.41a3.782,3.782,0,1,1,3.422,2.178,3.77,3.77,0,0,1-3.422-2.178m11.423-5.32a3.767,3.767,0,0,1,1.849-5v-.013a3.777,3.777,0,0,1,3.145,6.869,3.816,3.816,0,0,1-1.56.341,3.77,3.77,0,0,1-3.434-2.2m11.448-5.233a3.793,3.793,0,1,1,3.447,2.225,3.779,3.779,0,0,1-3.447-2.225m11.5-5.145A3.777,3.777,0,1,1,229,283.634a3.871,3.871,0,0,1-1.521.328,3.782,3.782,0,0,1-3.46-2.252m11.522-5.082a3.778,3.778,0,1,1,4.971,1.961,3.722,3.722,0,0,1-1.5.315,3.773,3.773,0,0,1-3.472-2.276m11.563-5a3.776,3.776,0,1,1,4.957,1.988,3.866,3.866,0,0,1-1.484.3,3.78,3.78,0,0,1-3.472-2.29M258.69,266.7a3.775,3.775,0,1,1,4.944,2.014,3.726,3.726,0,0,1-1.459.288,3.8,3.8,0,0,1-3.485-2.3m11.624-4.867a3.781,3.781,0,0,1,2.037-4.945v.013a3.773,3.773,0,1,1,2.895,6.97,3.674,3.674,0,0,1-1.447.291,3.791,3.791,0,0,1-3.485-2.327m11.637-4.818a3.775,3.775,0,1,1,4.932,2.075,3.852,3.852,0,0,1-1.434.277,3.777,3.777,0,0,1-3.5-2.351m11.675-4.744a3.776,3.776,0,1,1,4.906,2.1h.013a3.961,3.961,0,0,1-1.409.264,3.781,3.781,0,0,1-3.51-2.365m11.7-4.691a3.771,3.771,0,1,1,3.51,2.389,3.77,3.77,0,0,1-3.51-2.389m11.726-4.617a3.768,3.768,0,0,1,2.15-4.882v-.013a3.778,3.778,0,0,1,2.73,7.046,3.925,3.925,0,0,1-1.359.25,3.768,3.768,0,0,1-3.521-2.4m11.75-4.568a3.773,3.773,0,1,1,4.867,2.178,3.858,3.858,0,0,1-1.346.252,3.761,3.761,0,0,1-3.521-2.429m11.774-4.5a3.776,3.776,0,1,1,4.869,2.2,3.555,3.555,0,0,1-1.335.252,3.772,3.772,0,0,1-3.534-2.453m11.814-4.427a3.773,3.773,0,1,1,4.843,2.239,3.632,3.632,0,0,1-1.3.238,3.782,3.782,0,0,1-3.546-2.477m11.848-4.341a3.777,3.777,0,1,1,4.832,2.278,3.763,3.763,0,0,1-4.832-2.278m11.89-4.226a3.781,3.781,0,1,1,3.573,2.553,3.783,3.783,0,0,1-3.573-2.553m11.9-4.089a3.756,3.756,0,0,1,2.3-4.806l-.014-.013a3.778,3.778,0,1,1,2.53,7.119,3.78,3.78,0,0,1-4.82-2.3m11.838-4.216a3.78,3.78,0,0,1,2.239-4.842h.014a3.771,3.771,0,0,1,2.589,7.083,3.608,3.608,0,0,1-1.293.238,3.783,3.783,0,0,1-3.549-2.478m11.788-4.364a3.777,3.777,0,1,1,4.881,2.175,3.618,3.618,0,0,1-1.347.252,3.778,3.778,0,0,1-3.534-2.427m11.739-4.53a3.771,3.771,0,1,1,4.9,2.1,3.705,3.705,0,0,1-1.407.277,3.775,3.775,0,0,1-3.5-2.379m11.661-4.7a3.77,3.77,0,1,1,4.931,2.024,3.709,3.709,0,0,1-1.447.291,3.767,3.767,0,0,1-3.485-2.315m11.574-4.9a3.777,3.777,0,1,1,4.982,1.937,3.663,3.663,0,0,1-1.522.328,3.788,3.788,0,0,1-3.46-2.266m11.5-5.1a3.776,3.776,0,0,1,1.837-5.02V184a3.771,3.771,0,1,1,3.172,6.842,3.717,3.717,0,0,1-1.586.354,3.789,3.789,0,0,1-3.422-2.19m11.385-5.334a3.772,3.772,0,1,1,5.045,1.724h.013a3.767,3.767,0,0,1-5.057-1.724m11.259-5.6a3.773,3.773,0,1,1,5.1,1.585,3.832,3.832,0,0,1-1.749.428,3.766,3.766,0,0,1-3.346-2.013m11.1-5.9a3.777,3.777,0,1,1,5.145,1.433v-.013a3.661,3.661,0,0,1-1.849.492,3.789,3.789,0,0,1-3.3-1.912m10.907-6.252a3.794,3.794,0,1,1,3.221,1.786,3.762,3.762,0,0,1-3.221-1.786m10.656-6.681a3.776,3.776,0,1,1,3.12,1.649,3.778,3.778,0,0,1-3.12-1.649m10.3-7.195a3.775,3.775,0,1,1,5.3.654,3.706,3.706,0,0,1-2.316.805,3.8,3.8,0,0,1-2.982-1.459m9.814-7.875a3.75,3.75,0,0,1,.187-5.323l-.013-.011a3.778,3.778,0,1,1,2.58,6.542,3.732,3.732,0,0,1-2.755-1.208m8.994-8.769a3.783,3.783,0,1,1,2.366.829,3.725,3.725,0,0,1-2.366-.829m7.51-10.089a3.776,3.776,0,0,1-1.961-4.971v.013a3.778,3.778,0,1,1,1.961,4.958m-.225-15.122h0a3.775,3.775,0,1,1,4.275,3.2,3.99,3.99,0,0,1-.538.036,3.785,3.785,0,0,1-3.736-3.232m-4.694-8.77a3.781,3.781,0,1,1,2.678,1.107,3.788,3.788,0,0,1-2.678-1.107m-9.3-6.341a3.753,3.753,0,1,1,1.648.391,3.691,3.691,0,0,1-1.648-.391m-11.146-4.226a3.778,3.778,0,1,1,1.071.151,3.928,3.928,0,0,1-1.071-.151m-11.862-2.818a3.8,3.8,0,1,1,.7.062,4.554,4.554,0,0,1-.7-.062M500.66,86.172h0a3.772,3.772,0,1,1,.454.026c-.152,0-.3-.013-.454-.026m-12.328-1.157a3.7,3.7,0,1,1,.263.014,1.667,1.667,0,0,1-.263-.014M475.916,84.4a3.841,3.841,0,1,1,.125,0Z" transform="translate(10.082 19.83)" fill="#fff"/>
        <path id="Path_7113" data-name="Path 7113" d="M377.377,84.258a3.583,3.583,0,0,1-.73-.075,4.56,4.56,0,0,1-.706-.211,4.346,4.346,0,0,1-.653-.354,3.607,3.607,0,0,1-.579-.465,3.768,3.768,0,0,1,0-5.335,3.61,3.61,0,0,1,.579-.478,3.387,3.387,0,0,1,.653-.34,2.9,2.9,0,0,1,.706-.213,3.581,3.581,0,0,1,1.472,0,2.867,2.867,0,0,1,.7.213,3.336,3.336,0,0,1,.655.34,4.263,4.263,0,0,1,.579.478,4.132,4.132,0,0,1,.465.566,3.3,3.3,0,0,1,.34.655,2.776,2.776,0,0,1,.213.7,3.633,3.633,0,0,1,.077.742,3.576,3.576,0,0,1-.077.73,2.787,2.787,0,0,1-.213.707,3.02,3.02,0,0,1-.34.652,4.347,4.347,0,0,1-.465.58,4.075,4.075,0,0,1-1.234.819,4.49,4.49,0,0,1-.7.211,3.632,3.632,0,0,1-.742.075" transform="translate(96.404 19.794)" fill="#fff"/>
        <path id="Path_7114" data-name="Path 7114" d="M134.187,391.348a3.746,3.746,0,0,1-2.667-1.107,3.546,3.546,0,0,1-.478-.579,3.635,3.635,0,0,1-.351-.653,4.439,4.439,0,0,1-.215-.706,4.913,4.913,0,0,1-.063-.73,3.766,3.766,0,0,1,1.094-2.667,3.6,3.6,0,0,1,.579-.478,3.341,3.341,0,0,1,.655-.34,2.831,2.831,0,0,1,.7-.213,3.582,3.582,0,0,1,1.472,0,2.849,2.849,0,0,1,.706.213,3.393,3.393,0,0,1,.653.34,3.548,3.548,0,0,1,.579.478,3.371,3.371,0,0,1,.465.566,4.048,4.048,0,0,1,.354.655,3.546,3.546,0,0,1,.275,1.445,3.832,3.832,0,0,1-1.094,2.667,3.785,3.785,0,0,1-2.667,1.107" transform="translate(33.652 99.035)" fill="#fff"/>
        <path id="Path_7115" data-name="Path 7115" d="M164.562,464.95a3.776,3.776,0,1,1,4.026,3.51,1.7,1.7,0,0,1-.264.014,3.777,3.777,0,0,1-3.762-3.524m-9.147,3.26h0a3.812,3.812,0,1,1,.478.025,3.136,3.136,0,0,1-.478-.025m21.564-4.428a3.778,3.778,0,1,1,4.389,3.032,3.165,3.165,0,0,1-.679.063,3.769,3.769,0,0,1-3.71-3.095m-34.8.315a3.8,3.8,0,1,1,1.874.489,3.725,3.725,0,0,1-1.874-.489m47.037-2.755a3.773,3.773,0,1,1,4.606,2.716,3.429,3.429,0,0,1-.944.127,3.785,3.785,0,0,1-3.662-2.843m12.065-3.26a3.772,3.772,0,1,1,4.731,2.466,3.591,3.591,0,0,1-1.145.177,3.749,3.749,0,0,1-3.587-2.643m11.865-3.848a3.758,3.758,0,1,1,3.56,2.5,3.776,3.776,0,0,1-3.56-2.5m-80.779-.944a3.773,3.773,0,1,1,6.905-3.044h.014a3.771,3.771,0,0,1-1.937,4.969,3.615,3.615,0,0,1-1.522.327,3.8,3.8,0,0,1-3.46-2.252m92.5-3.359a3.78,3.78,0,1,1,3.51,2.376,3.784,3.784,0,0,1-3.51-2.376m11.575-4.68a3.776,3.776,0,1,1,4.957,1.988,3.6,3.6,0,0,1-1.486.3,3.78,3.78,0,0,1-3.471-2.288m11.461-4.969a3.767,3.767,0,1,1,4.994,1.875,3.646,3.646,0,0,1-1.561.34,3.76,3.76,0,0,1-3.433-2.214m11.335-5.221a3.788,3.788,0,1,1,3.4,2.139,3.769,3.769,0,0,1-3.4-2.139m11.222-5.449a3.775,3.775,0,1,1,5.07,1.674,3.711,3.711,0,0,1-1.686.4,3.781,3.781,0,0,1-3.384-2.077m11.134-5.647a3.78,3.78,0,1,1,3.345,2.025,3.774,3.774,0,0,1-3.345-2.025m11.044-5.826a3.772,3.772,0,1,1,5.121,1.522,3.878,3.878,0,0,1-1.8.454,3.769,3.769,0,0,1-3.322-1.976m10.946-5.987a3.793,3.793,0,1,1,3.3,1.925,3.767,3.767,0,0,1-3.3-1.925m10.868-6.139a3.774,3.774,0,1,1,5.159,1.371,3.828,3.828,0,0,1-1.887.5,3.755,3.755,0,0,1-3.272-1.874m10.783-6.29a3.775,3.775,0,1,1,5.171,1.308,3.834,3.834,0,0,1-1.925.528,3.757,3.757,0,0,1-3.246-1.837m10.693-6.43a3.786,3.786,0,1,1,3.221,1.8,3.777,3.777,0,0,1-3.221-1.8m10.593-6.541a3.783,3.783,0,1,1,3.2,1.761,3.788,3.788,0,0,1-3.2-1.761m10.541-6.693a3.771,3.771,0,1,1,5.222,1.118,3.779,3.779,0,0,1-5.222-1.118m10.479-6.819a3.777,3.777,0,0,1,1.057-5.246v.013a3.765,3.765,0,1,1-1.057,5.233m10.367-6.946a3.779,3.779,0,1,1,5.246.994,3.727,3.727,0,0,1-2.113.655,3.789,3.789,0,0,1-3.133-1.649m10.289-7.07a3.771,3.771,0,1,1,5.26.92,3.718,3.718,0,0,1-2.165.692,3.805,3.805,0,0,1-3.095-1.612m10.2-7.183a3.776,3.776,0,1,1,5.27.844h-.013a3.678,3.678,0,0,1-2.2.717,3.749,3.749,0,0,1-3.056-1.561m10.1-7.333a3.77,3.77,0,1,1,3.031,1.535,3.76,3.76,0,0,1-3.031-1.535m10-7.449a3.774,3.774,0,1,1,5.3.706,3.7,3.7,0,0,1-2.288.78,3.794,3.794,0,0,1-3.008-1.486m9.915-7.611a3.765,3.765,0,1,1,2.968,1.448,3.763,3.763,0,0,1-2.968-1.448m9.786-7.736a3.779,3.779,0,1,1,2.931,1.4,3.775,3.775,0,0,1-2.931-1.4m9.649-7.9a3.782,3.782,0,1,1,5.323.453,3.722,3.722,0,0,1-2.428.893,3.824,3.824,0,0,1-2.895-1.346m9.536-8.077a3.772,3.772,0,1,1,5.323.365,3.832,3.832,0,0,1-2.492.931,3.744,3.744,0,0,1-2.831-1.3m9.361-8.254a3.762,3.762,0,1,1,2.78,1.234,3.777,3.777,0,0,1-2.78-1.234m9.171-8.453a3.782,3.782,0,1,1,5.347.112h-.013a3.783,3.783,0,0,1-5.334-.112m8.97-8.694a3.78,3.78,0,1,1,2.641,1.083,3.762,3.762,0,0,1-2.641-1.083m8.706-8.943a3.79,3.79,0,0,1-.24-5.334h.014a3.77,3.77,0,1,1,5.548,5.106l.013-.011a3.781,3.781,0,0,1-2.794,1.219,3.715,3.715,0,0,1-2.54-.98m8.366-9.259a3.785,3.785,0,1,1,2.428.881,3.772,3.772,0,0,1-2.428-.881m7.938-9.637a3.774,3.774,0,1,1,2.263.755,3.713,3.713,0,0,1-2.263-.755m7.346-10.077a3.794,3.794,0,1,1,2.014.579,3.813,3.813,0,0,1-2.014-.579m6.454-10.656a3.781,3.781,0,1,1,1.623.365,3.785,3.785,0,0,1-1.623-.365m5.008-11.373a3.744,3.744,0,1,1,.893.113,3.692,3.692,0,0,1-.893-.113m-1.988-15.449a3.774,3.774,0,1,1,4.264,3.2,3.91,3.91,0,0,1-.54.05,3.784,3.784,0,0,1-3.724-3.246m-4.178-9.284a3.776,3.776,0,1,1,2.87,1.321,3.813,3.813,0,0,1-2.87-1.321m-8.729-6.4a3.778,3.778,0,1,1,1.648.377,3.905,3.905,0,0,1-1.648-.377" transform="translate(34.075 47.035)" fill="#fff"/>
        <path id="Path_7116" data-name="Path 7116" d="M428.6,186.689a3.6,3.6,0,0,1-.73-.077,5.094,5.094,0,0,1-.716-.213,3.925,3.925,0,0,1-.643-.353,3.4,3.4,0,0,1-.579-.465,3.473,3.473,0,0,1-.465-.579,4,4,0,0,1-.352-.642,4.657,4.657,0,0,1-.213-.717,3.58,3.58,0,0,1-.077-.728,3.79,3.79,0,0,1,1.107-2.667,2.886,2.886,0,0,1,.579-.465,3.169,3.169,0,0,1,.643-.354,3.834,3.834,0,0,1,.716-.213,3.582,3.582,0,0,1,1.472,0,3.493,3.493,0,0,1,.7.213,3.677,3.677,0,0,1,.654.354,2.778,2.778,0,0,1,.566.465,3.79,3.79,0,0,1,1.107,2.667,3.578,3.578,0,0,1-.076.728,2.913,2.913,0,0,1-.213.717,3.854,3.854,0,0,1-.341.642,3.546,3.546,0,0,1-.478.579,3.813,3.813,0,0,1-.566.465,4.707,4.707,0,0,1-.654.353,4.546,4.546,0,0,1-.7.213,3.717,3.717,0,0,1-.742.077" transform="translate(109.621 46.225)" fill="#fff"/>
        <g id="Group_5063" data-name="Group 5063" transform="translate(134.984 382.251)" opacity="0.3" style="mix-blend-mode: multiply;isolation: isolate">
          <g id="Group_5062" data-name="Group 5062">
            <g id="Group_5061" data-name="Group 5061" clip-path="url(#clip-path-9)">
              <path id="Path_7117" data-name="Path 7117" d="M142.185,307.789c0,2.176-7.81,3.941-17.444,3.941s-17.444-1.765-17.444-3.941,7.81-3.941,17.444-3.941,17.444,1.765,17.444,3.941" transform="translate(-107.297 -303.847)" fill="#262959"/>
            </g>
          </g>
        </g>
        <path id="Path_7118" data-name="Path 7118" d="M126.279,249.765a24.361,24.361,0,0,1,24.361,24.361C150.639,299,128.855,320,126.279,320c-3.778,0-24.361-22.519-24.361-45.878a24.361,24.361,0,0,1,24.361-24.361" transform="translate(26.299 64.449)" fill="#fff"/>
        <path id="Path_7119" data-name="Path 7119" d="M124.213,257.874a14.291,14.291,0,1,1-14.291,14.291,14.291,14.291,0,0,1,14.291-14.291" transform="translate(28.364 66.542)" fill="#a3166b"/>
        <path id="Path_7120" data-name="Path 7120" d="M124.533,288.337a15.851,15.851,0,1,1,15.851-15.851,15.87,15.87,0,0,1-15.851,15.851m0-28.581a12.73,12.73,0,1,0,12.73,12.73,12.745,12.745,0,0,0-12.73-12.73" transform="translate(28.044 66.222)" fill="#a3166b"/>
        <path id="Path_7121" data-name="Path 7121" d="M120.686,277.555a1.347,1.347,0,0,1-.951-.394l-5.079-5.077a1.345,1.345,0,1,1,1.9-1.9l4.129,4.126,8.982-8.982a1.344,1.344,0,0,1,1.9,1.9l-9.932,9.935a1.347,1.347,0,0,1-.951.394" transform="translate(29.484 68.363)" fill="#fff"/>
        <g id="Group_5066" data-name="Group 5066" transform="translate(308.555 496.272)" opacity="0.3" style="mix-blend-mode: multiply;isolation: isolate">
          <g id="Group_5065" data-name="Group 5065">
            <g id="Group_5064" data-name="Group 5064" clip-path="url(#clip-path-10)">
              <path id="Path_7122" data-name="Path 7122" d="M274.926,397.831c0,1.851-6.639,3.351-14.83,3.351s-14.828-1.5-14.828-3.351,6.639-3.351,14.828-3.351,14.83,1.5,14.83,3.351" transform="translate(-245.267 -394.481)" fill="#262959"/>
            </g>
          </g>
        </g>
        <path id="Path_7123" data-name="Path 7123" d="M261.884,349.259a20.71,20.71,0,0,1,20.71,20.71c0,21.144-18.52,39-20.71,39-3.212,0-20.71-19.145-20.71-39a20.71,20.71,0,0,1,20.71-20.71" transform="translate(62.232 90.122)" fill="#fff"/>
        <path id="Path_7124" data-name="Path 7124" d="M260.128,356.153A12.149,12.149,0,1,1,247.979,368.3a12.15,12.15,0,0,1,12.149-12.149" transform="translate(63.988 91.901)" fill="#a3166b"/>
        <path id="Path_7125" data-name="Path 7125" d="M260.4,382.05a13.475,13.475,0,1,1,13.476-13.476A13.492,13.492,0,0,1,260.4,382.05m0-24.3a10.822,10.822,0,1,0,10.822,10.822A10.834,10.834,0,0,0,260.4,357.752" transform="translate(63.716 91.629)" fill="#a3166b"/>
        <path id="Path_7126" data-name="Path 7126" d="M257.129,372.884h0a1.137,1.137,0,0,1-.809-.335L252,368.232a1.143,1.143,0,1,1,1.617-1.617l3.509,3.51,7.636-7.638a1.144,1.144,0,0,1,1.618,1.617l-8.445,8.445a1.137,1.137,0,0,1-.809.335" transform="translate(64.94 93.45)" fill="#fff"/>
        <g id="Group_5069" data-name="Group 5069" transform="translate(128.075 168.46)" opacity="0.3" style="mix-blend-mode: multiply;isolation: isolate">
          <g id="Group_5068" data-name="Group 5068">
            <g id="Group_5067" data-name="Group 5067" clip-path="url(#clip-path-11)">
              <path id="Path_7127" data-name="Path 7127" d="M124.816,136.507c0,1.435-5.152,2.6-11.506,2.6s-11.506-1.165-11.506-2.6,5.152-2.6,11.506-2.6,11.506,1.165,11.506,2.6" transform="translate(-101.805 -133.907)" fill="#262959"/>
            </g>
          </g>
        </g>
        <path id="Path_7128" data-name="Path 7128" d="M114.26,98.069a16.317,16.317,0,0,1,16.317,16.317c0,16.659-14.591,30.73-16.317,30.73-2.53,0-16.317-15.084-16.317-30.73A16.317,16.317,0,0,1,114.26,98.069" transform="translate(25.273 25.306)" fill="#fff"/>
        <path id="Path_7129" data-name="Path 7129" d="M112.876,103.5a9.572,9.572,0,1,1-9.572,9.572,9.573,9.573,0,0,1,9.572-9.572" transform="translate(26.656 26.707)" fill="#a3166b"/>
        <path id="Path_7130" data-name="Path 7130" d="M113.091,123.9a10.617,10.617,0,1,1,10.618-10.617A10.629,10.629,0,0,1,113.091,123.9m0-19.144a8.526,8.526,0,1,0,8.527,8.527,8.536,8.536,0,0,0-8.527-8.527" transform="translate(26.442 26.493)" fill="#a3166b"/>
        <path id="Path_7131" data-name="Path 7131" d="M110.513,116.682a.9.9,0,0,1-.637-.263l-3.4-3.4a.9.9,0,0,1,1.274-1.274l2.764,2.764,6.017-6.016a.9.9,0,0,1,1.273,1.274l-6.654,6.654a.9.9,0,0,1-.637.263" transform="translate(27.407 27.927)" fill="#fff"/>
        <g id="Group_5072" data-name="Group 5072" transform="translate(388.997 107.707)" opacity="0.3" style="mix-blend-mode: multiply;isolation: isolate">
          <g id="Group_5071" data-name="Group 5071">
            <g id="Group_5070" data-name="Group 5070" clip-path="url(#clip-path-12)">
              <path id="Path_7132" data-name="Path 7132" d="M333.062,88.31c0,1.488-5.339,2.695-11.926,2.695S309.21,89.8,309.21,88.31s5.339-2.695,11.926-2.695,11.926,1.206,11.926,2.695" transform="translate(-309.209 -85.615)" fill="#262959"/>
            </g>
          </g>
        </g>
        <path id="Path_7133" data-name="Path 7133" d="M322.12,48.466a16.913,16.913,0,0,1,16.913,16.913c0,17.269-15.124,31.854-16.913,31.854-2.623,0-16.913-15.635-16.913-31.854A16.913,16.913,0,0,1,322.12,48.466" transform="translate(78.755 12.506)" fill="#fff"/>
        <path id="Path_7134" data-name="Path 7134" d="M320.686,54.1a9.922,9.922,0,1,1-9.922,9.922,9.922,9.922,0,0,1,9.922-9.922" transform="translate(80.189 13.959)" fill="#a3166b"/>
        <path id="Path_7135" data-name="Path 7135" d="M320.908,75.247a11.007,11.007,0,1,1,11.005-11.007,11.018,11.018,0,0,1-11.005,11.007m0-19.846a8.838,8.838,0,1,0,8.838,8.839,8.848,8.848,0,0,0-8.838-8.839" transform="translate(79.967 13.736)" fill="#a3166b"/>
        <path id="Path_7136" data-name="Path 7136" d="M318.237,67.759a.93.93,0,0,1-.66-.273l-3.525-3.526a.933.933,0,1,1,1.32-1.32l2.866,2.865,6.236-6.236a.934.934,0,0,1,1.321,1.321l-6.9,6.9a.93.93,0,0,1-.66.273" transform="translate(80.967 15.223)" fill="#fff"/>
        <g id="Group_5075" data-name="Group 5075" transform="translate(400.699 287.583)" opacity="0.3" style="mix-blend-mode: multiply;isolation: isolate">
          <g id="Group_5074" data-name="Group 5074">
            <g id="Group_5073" data-name="Group 5073" clip-path="url(#clip-path-13)">
              <path id="Path_7137" data-name="Path 7137" d="M352.691,233.432c0,2.671-7.651,4.836-17.09,4.836s-17.09-2.165-17.09-4.836,7.651-4.836,17.09-4.836,17.09,2.165,17.09,4.836" transform="translate(-318.511 -228.596)" fill="#262959"/>
            </g>
          </g>
        </g>
        <path id="Path_7138" data-name="Path 7138" d="M339.3,151.968a35.112,35.112,0,0,1,35.112,35.112c0,35.848-31.4,66.125-35.112,66.125-5.445,0-35.112-32.459-35.112-66.125A35.112,35.112,0,0,1,339.3,151.968" transform="translate(78.492 39.214)" fill="#fff"/>
        <path id="Path_7139" data-name="Path 7139" d="M336.1,162.52a20.6,20.6,0,1,1-20.6,20.6,20.6,20.6,0,0,1,20.6-20.6" transform="translate(81.413 41.937)" fill="#e71e85"/>
        <path id="Path_7140" data-name="Path 7140" d="M336.566,206.426a22.847,22.847,0,1,1,22.847-22.847,22.873,22.873,0,0,1-22.847,22.847m0-41.2a18.349,18.349,0,1,0,18.348,18.349,18.37,18.37,0,0,0-18.348-18.349" transform="translate(80.952 41.475)" fill="#e71e85"/>
        <path id="Path_7141" data-name="Path 7141" d="M336.009,162.74l4.728,14.59h15.4l-12.47,9.047,4.808,14.671L336.009,192l-12.47,9.047,4.808-14.671-12.47-9.047h15.4Z" transform="translate(81.509 41.993)" fill="#fdfdfe"/>
        <path id="Path_7142" data-name="Path 7142" d="M336.65,161.239a22.209,22.209,0,1,1-22.209,22.209,22.209,22.209,0,0,1,22.209-22.209" transform="translate(81.138 41.606)" fill="#2396d4"/>
        <path id="Path_7143" data-name="Path 7143" d="M337.149,208.581a24.635,24.635,0,1,1,24.635-24.635,24.663,24.663,0,0,1-24.635,24.635m0-44.42a19.785,19.785,0,1,0,19.785,19.785,19.807,19.807,0,0,0-19.785-19.785" transform="translate(80.641 41.108)" fill="#2396d4"/>
        <path id="Path_7144" data-name="Path 7144" d="M331.168,191.826a2.085,2.085,0,0,1-1.478-.611l-7.892-7.893a2.09,2.09,0,0,1,2.955-2.955l6.415,6.413,13.96-13.959a2.09,2.09,0,1,1,2.955,2.955l-15.437,15.439a2.085,2.085,0,0,1-1.478.611" transform="translate(82.879 44.436)" fill="#fff"/>
      </g>
    </g>
  </g>
</svg>
