<svg xmlns="http://www.w3.org/2000/svg" width="81.841" height="104.425" viewBox="0 0 81.841 104.425">
  <g id="Group_5038" data-name="Group 5038" transform="translate(19970.533 12659.762)">
    <path id="Path_6286" data-name="Path 6286" d="M821.811,856.622H745.123c-1.947-.727-2.657-2.142-2.649-4.194.047-11.247.019-22.495.019-33.742q0-31.142-.019-62.285c0-2.052.7-3.473,2.649-4.2h76.688c1.873.832,2.508,2.265,2.5,4.3q-.066,47.861,0,95.722c0,2.071-.582,3.547-2.5,4.4m-6.562-94.3H751.593v84.162h63.656Zm-28.5,89.224a3.328,3.328,0,0,0-3.318-3.4,3.364,3.364,0,1,0-.06,6.728,3.307,3.307,0,0,0,3.378-3.329" transform="translate(-20713.008 -13411.959)" fill="#fff"/>
    <path id="Path_6902" data-name="Path 6902" d="M28.81,27.843H17.356a2.262,2.262,0,1,1,0-4.525H28.81a2.262,2.262,0,1,1,0,4.525" transform="translate(-19968.695 -12663.026)" fill="#ea1585"/>
    <path id="Path_7085" data-name="Path 7085" d="M28.81,27.843H17.356a2.262,2.262,0,1,1,0-4.525H28.81a2.262,2.262,0,1,1,0,4.525" transform="translate(-19936.695 -12663.026)" fill="#ea1585"/>
    <path id="Path_6903" data-name="Path 6903" d="M23.083,54.98H17.356a2.262,2.262,0,1,1,0-4.525h5.727a2.262,2.262,0,1,1,0,4.525" transform="translate(-19968.695 -12680.37)" fill="#fff"/>
    <path id="Path_7087" data-name="Path 7087" d="M23.083,54.98H17.356a2.262,2.262,0,1,1,0-4.525h5.727a2.262,2.262,0,1,1,0,4.525" transform="translate(-19934.105 -12670.577)" fill="#fff"/>
    <path id="Path_6904" data-name="Path 6904" d="M32.652,82.116h-15.3a2.262,2.262,0,1,1,0-4.525h15.3a2.262,2.262,0,1,1,0,4.525" transform="translate(-19968.695 -12697.714)" fill="#85c3e0"/>
    <path id="Path_6905" data-name="Path 6905" d="M25.048,109.252H17.424a2.262,2.262,0,1,1,0-4.525h7.623a2.262,2.262,0,1,1,0,4.525" transform="translate(-19968.742 -12715.058)" fill="#85c3e0"/>
    <path id="Path_6906" data-name="Path 6906" d="M34.168,136.388H17.423a2.262,2.262,0,0,1,0-4.525H34.168a2.262,2.262,0,1,1,0,4.525" transform="translate(-19968.738 -12732.4)" fill="#85c3e0"/>
    <path id="Path_6909" data-name="Path 6909" d="M74.331,27.843H68.6a2.262,2.262,0,0,1,0-4.525h5.727a2.262,2.262,0,0,1,0,4.525" transform="translate(-20001.449 -12663.026)" fill="#f577c3"/>
    <path id="Path_6912" data-name="Path 6912" d="M58.279,54.98H52.552a2.262,2.262,0,0,1,0-4.525h5.727a2.262,2.262,0,1,1,0,4.525" transform="translate(-19991.191 -12680.37)" fill="#85c3e0"/>
    <path id="Path_7086" data-name="Path 7086" d="M58.279,54.98H52.552a2.262,2.262,0,0,1,0-4.525h5.727a2.262,2.262,0,1,1,0,4.525" transform="translate(-19967.191 -12680.37)" fill="#85c3e0"/>
    <path id="Path_6913" data-name="Path 6913" d="M92.327,54.98H87.605a2.262,2.262,0,1,1,0-4.525h4.721a2.262,2.262,0,1,1,0,4.525" transform="translate(-20013.594 -12680.37)" fill="#fff"/>
    <path id="Path_6914" data-name="Path 6914" d="M84.342,82.116H78.806a2.262,2.262,0,1,1,0-4.525h5.536a2.262,2.262,0,1,1,0,4.525" transform="translate(-20007.973 -12697.714)" fill="#85c3e0"/>
    <path id="Path_6915" data-name="Path 6915" d="M67.7,109.252h-10.6a2.262,2.262,0,1,1,0-4.525H67.7a2.262,2.262,0,0,1,0,4.525" transform="translate(-19994.094 -12715.058)" fill="#fff"/>
    <path id="Path_6916" data-name="Path 6916" d="M102.688,109.256a2.181,2.181,0,0,1-.442-.045,2.438,2.438,0,0,1-.422-.131,2.161,2.161,0,0,1-.734-.488,2.286,2.286,0,0,1-.281-.342,2.483,2.483,0,0,1-.211-.392,2.15,2.15,0,0,1-.126-.422,2.218,2.218,0,0,1-.045-.442,2.609,2.609,0,0,1,.04-.442,2.436,2.436,0,0,1,.131-.422,1.857,1.857,0,0,1,.211-.392,2.059,2.059,0,0,1,.276-.342,2.277,2.277,0,0,1,2.046-.619,2.2,2.2,0,0,1,.422.126,2.149,2.149,0,0,1,.392.211,2.294,2.294,0,0,1,.342.282,1.856,1.856,0,0,1,.281.342,2.076,2.076,0,0,1,.206.392,2.045,2.045,0,0,1,.131.422,2.181,2.181,0,0,1,.045.442,2.218,2.218,0,0,1-.045.442,2.144,2.144,0,0,1-.131.422,2.421,2.421,0,0,1-.206.392,2.269,2.269,0,0,1-1.88,1.005" transform="translate(-20023.234 -12715.061)" fill="#85c3e0"/>
    <path id="Path_7089" data-name="Path 7089" d="M102.688,109.256a2.181,2.181,0,0,1-.442-.045,2.438,2.438,0,0,1-.422-.131,2.161,2.161,0,0,1-.734-.488,2.286,2.286,0,0,1-.281-.342,2.483,2.483,0,0,1-.211-.392,2.15,2.15,0,0,1-.126-.422,2.218,2.218,0,0,1-.045-.442,2.609,2.609,0,0,1,.04-.442,2.436,2.436,0,0,1,.131-.422,1.857,1.857,0,0,1,.211-.392,2.059,2.059,0,0,1,.276-.342,2.277,2.277,0,0,1,2.046-.619,2.2,2.2,0,0,1,.422.126,2.149,2.149,0,0,1,.392.211,2.294,2.294,0,0,1,.342.282,1.856,1.856,0,0,1,.281.342,2.076,2.076,0,0,1,.206.392,2.045,2.045,0,0,1,.131.422,2.181,2.181,0,0,1,.045.442,2.218,2.218,0,0,1-.045.442,2.144,2.144,0,0,1-.131.422,2.421,2.421,0,0,1-.206.392,2.269,2.269,0,0,1-1.88,1.005" transform="translate(-20017.352 -12705.27)" fill="#fff"/>
    <path id="Path_6917" data-name="Path 6917" d="M88.818,136.388h-6.7a2.262,2.262,0,1,1,0-4.525h6.7a2.262,2.262,0,1,1,0,4.525" transform="translate(-20010.086 -12732.4)" fill="#85c3e0"/>
    <path id="Path_6902-2" data-name="Path 6902" d="M28.81,27.843H17.356a2.262,2.262,0,1,1,0-4.525H28.81a2.262,2.262,0,1,1,0,4.525" transform="translate(-19968.695 -12613.026)" fill="#85c3e0"/>
    <path id="Path_6903-2" data-name="Path 6903" d="M23.083,54.98H17.356a2.262,2.262,0,1,1,0-4.525h5.727a2.262,2.262,0,1,1,0,4.525" transform="translate(-19968.695 -12630.37)" fill="#fff"/>
    <path id="Path_6909-2" data-name="Path 6909" d="M74.331,27.843H68.6a2.262,2.262,0,0,1,0-4.525h5.727a2.262,2.262,0,0,1,0,4.525" transform="translate(-20001.449 -12613.026)" fill="#fff"/>
    <path id="Path_7088" data-name="Path 7088" d="M74.331,27.843H68.6a2.262,2.262,0,0,1,0-4.525h5.727a2.262,2.262,0,0,1,0,4.525" transform="translate(-19988.684 -12613.026)" fill="#85c3e0"/>
    <path id="Path_6912-2" data-name="Path 6912" d="M58.279,54.98H52.552a2.262,2.262,0,0,1,0-4.525h5.727a2.262,2.262,0,1,1,0,4.525" transform="translate(-19991.191 -12630.37)" fill="#85c3e0"/>
    <path id="Path_6913-2" data-name="Path 6913" d="M92.327,54.98H87.605a2.262,2.262,0,1,1,0-4.525h4.721a2.262,2.262,0,1,1,0,4.525" transform="translate(-20013.594 -12630.37)" fill="#fff"/>
  </g>
</svg>
