<svg xmlns="http://www.w3.org/2000/svg" width="76.998" height="99.588" viewBox="0 0 76.998 99.588">
  <g id="Group_3119" data-name="Group 3119" transform="translate(-649 -308.071)">
    <g id="Group_3115" data-name="Group 3115" transform="translate(649 308.071)">
      <path id="Path_6135" data-name="Path 6135" d="M34.867,46.771a5.12,5.12,0,0,1-4.726-7.076L36.257,24.93A10.62,10.62,0,0,0,16.633,16.8L9.846,33.189A5.117,5.117,0,1,1,.391,29.272L7.179,12.885A20.854,20.854,0,1,1,45.712,28.847L39.6,43.611a5.119,5.119,0,0,1-4.73,3.16" transform="translate(7.806 17.723) rotate(-22)" fill="#fff"/>
      <g id="Group_3116" data-name="Group 3116" transform="translate(0 22.589)">
        <path id="Path_6136" data-name="Path 6136" d="M54.235,45.877,24.564,58.168a7.266,7.266,0,0,1-9.494-3.933L0,17.851,43.1,0l15.07,36.384a7.265,7.265,0,0,1-3.932,9.493" transform="matrix(0.921, 0.391, -0.391, 0.921, 22.945, 0)" fill="#e71e85"/>
        <path id="Path_6137" data-name="Path 6137" d="M9.254,14.1h0A4.459,4.459,0,0,1,3.429,11.69L0,3.413,8.238,0l3.428,8.278A4.458,4.458,0,0,1,9.254,14.1" transform="matrix(0.921, 0.391, -0.391, 0.921, 36.023, 30.069)" fill="#fff"/>
      </g>
    </g>
  </g>
</svg>
